<mxfile host="Electron" agent="Mozilla/5.0 (Macintosh; Intel Mac OS X 10_15_7) AppleWebKit/537.36 (KHTML, like Gecko) draw.io/26.0.16 Chrome/132.0.6834.196 Electron/34.2.0 Safari/537.36" version="26.0.16">
  <diagram name="Sign-Up Process" id="bZQSlQ6ZtP42F_CUVHLu">
    <mxGraphModel dx="1122" dy="731" grid="1" gridSize="10" guides="1" tooltips="1" connect="1" arrows="1" fold="1" page="1" pageScale="1" pageWidth="3300" pageHeight="2339" math="0" shadow="0">
      <root>
        <mxCell id="0" />
        <mxCell id="1" parent="0" />
        <mxCell id="O9P87CqrhAHiz72OC8NO-1" value="START Sign-Up Process" style="ellipse;whiteSpace=wrap;html=1;fillColor=#d5e8d4;strokeColor=#82b366;" vertex="1" parent="1">
          <mxGeometry x="320" y="40" width="160" height="60" as="geometry" />
        </mxCell>
        <mxCell id="O9P87CqrhAHiz72OC8NO-2" value="DISPLAY registration form" style="rounded=1;whiteSpace=wrap;html=1;fillColor=#dae8fc;strokeColor=#6c8ebf;" vertex="1" parent="1">
          <mxGeometry x="320" y="140" width="160" height="60" as="geometry" />
        </mxCell>
        <mxCell id="O9P87CqrhAHiz72OC8NO-3" value="INPUT userID, password1, password2, email, profile, name" style="shape=parallelogram;perimeter=parallelogramPerimeter;whiteSpace=wrap;html=1;fixedSize=1;fillColor=#fff2cc;strokeColor=#d6b656;" vertex="1" parent="1">
          <mxGeometry x="240" y="240" width="320" height="60" as="geometry" />
        </mxCell>
        <mxCell id="O9P87CqrhAHiz72OC8NO-4" value="userID is unique?" style="rhombus;whiteSpace=wrap;html=1;fillColor=#ffe6cc;strokeColor=#d79b00;" vertex="1" parent="1">
          <mxGeometry x="335" y="340" width="130" height="80" as="geometry" />
        </mxCell>
        <mxCell id="O9P87CqrhAHiz72OC8NO-5" value="DISPLAY &quot;User ID already exists. Please choose a different one.&quot;" style="rounded=1;whiteSpace=wrap;html=1;fillColor=#f8cecc;strokeColor=#b85450;" vertex="1" parent="1">
          <mxGeometry x="560" y="350" width="240" height="60" as="geometry" />
        </mxCell>
        <mxCell id="O9P87CqrhAHiz72OC8NO-6" value="password1 == password2?" style="rhombus;whiteSpace=wrap;html=1;fillColor=#ffe6cc;strokeColor=#d79b00;" vertex="1" parent="1">
          <mxGeometry x="335" y="460" width="130" height="80" as="geometry" />
        </mxCell>
        <mxCell id="O9P87CqrhAHiz72OC8NO-7" value="DISPLAY &quot;Passwords do not match. Please retype your password.&quot;" style="rounded=1;whiteSpace=wrap;html=1;fillColor=#f8cecc;strokeColor=#b85450;" vertex="1" parent="1">
          <mxGeometry x="560" y="470" width="240" height="60" as="geometry" />
        </mxCell>
        <mxCell id="O9P87CqrhAHiz72OC8NO-8" value="email format is valid?" style="rhombus;whiteSpace=wrap;html=1;fillColor=#ffe6cc;strokeColor=#d79b00;" vertex="1" parent="1">
          <mxGeometry x="335" y="580" width="130" height="80" as="geometry" />
        </mxCell>
        <mxCell id="O9P87CqrhAHiz72OC8NO-9" value="DISPLAY &quot;Invalid email format. Please enter a valid email.&quot;" style="rounded=1;whiteSpace=wrap;html=1;fillColor=#f8cecc;strokeColor=#b85450;" vertex="1" parent="1">
          <mxGeometry x="560" y="590" width="240" height="60" as="geometry" />
        </mxCell>
        <mxCell id="O9P87CqrhAHiz72OC8NO-10" value="profile is not empty?" style="rhombus;whiteSpace=wrap;html=1;fillColor=#ffe6cc;strokeColor=#d79b00;" vertex="1" parent="1">
          <mxGeometry x="335" y="700" width="130" height="80" as="geometry" />
        </mxCell>
        <mxCell id="O9P87CqrhAHiz72OC8NO-11" value="DISPLAY &quot;Profile field cannot be empty. Please fill in your profile.&quot;" style="rounded=1;whiteSpace=wrap;html=1;fillColor=#f8cecc;strokeColor=#b85450;" vertex="1" parent="1">
          <mxGeometry x="560" y="710" width="240" height="60" as="geometry" />
        </mxCell>
        <mxCell id="O9P87CqrhAHiz72OC8NO-12" value="name is not empty?" style="rhombus;whiteSpace=wrap;html=1;fillColor=#ffe6cc;strokeColor=#d79b00;" vertex="1" parent="1">
          <mxGeometry x="335" y="820" width="130" height="80" as="geometry" />
        </mxCell>
        <mxCell id="O9P87CqrhAHiz72OC8NO-13" value="DISPLAY &quot;Name field cannot be empty. Please enter your name.&quot;" style="rounded=1;whiteSpace=wrap;html=1;fillColor=#f8cecc;strokeColor=#b85450;" vertex="1" parent="1">
          <mxGeometry x="560" y="830" width="240" height="60" as="geometry" />
        </mxCell>
        <mxCell id="O9P87CqrhAHiz72OC8NO-14" value="CONNECT to database" style="rounded=1;whiteSpace=wrap;html=1;fillColor=#dae8fc;strokeColor=#6c8ebf;" vertex="1" parent="1">
          <mxGeometry x="320" y="940" width="160" height="60" as="geometry" />
        </mxCell>
        <mxCell id="O9P87CqrhAHiz72OC8NO-15" value="INSERT INTO Users (userID, password, email, profile, name)&#xa;VALUES (userID, password1, email, profile, name)" style="rounded=1;whiteSpace=wrap;html=1;fillColor=#dae8fc;strokeColor=#6c8ebf;" vertex="1" parent="1">
          <mxGeometry x="220" y="1040" width="360" height="60" as="geometry" />
        </mxCell>
        <mxCell id="O9P87CqrhAHiz72OC8NO-16" value="insertion successful?" style="rhombus;whiteSpace=wrap;html=1;fillColor=#ffe6cc;strokeColor=#d79b00;" vertex="1" parent="1">
          <mxGeometry x="335" y="1140" width="130" height="80" as="geometry" />
        </mxCell>
        <mxCell id="O9P87CqrhAHiz72OC8NO-17" value="DISPLAY &quot;Registration successful! Welcome to Rolsa Technologies.&quot;" style="rounded=1;whiteSpace=wrap;html=1;fillColor=#d5e8d4;strokeColor=#82b366;" vertex="1" parent="1">
          <mxGeometry x="200" y="1260" width="240" height="60" as="geometry" />
        </mxCell>
        <mxCell id="O9P87CqrhAHiz72OC8NO-18" value="DISPLAY &quot;Registration failed. Please try again later.&quot;" style="rounded=1;whiteSpace=wrap;html=1;fillColor=#f8cecc;strokeColor=#b85450;" vertex="1" parent="1">
          <mxGeometry x="520" y="1260" width="240" height="60" as="geometry" />
        </mxCell>
        <mxCell id="O9P87CqrhAHiz72OC8NO-19" value="END Sign-Up Process" style="ellipse;whiteSpace=wrap;html=1;fillColor=#d5e8d4;strokeColor=#82b366;" vertex="1" parent="1">
          <mxGeometry x="320" y="1360" width="160" height="60" as="geometry" />
        </mxCell>
        <mxCell id="O9P87CqrhAHiz72OC8NO-20" value="" style="endArrow=classic;html=1;exitX=0.5;exitY=1;exitDx=0;exitDy=0;entryX=0.5;entryY=0;entryDx=0;entryDy=0;" edge="1" parent="1" source="O9P87CqrhAHiz72OC8NO-1" target="O9P87CqrhAHiz72OC8NO-2">
          <mxGeometry width="50" height="50" relative="1" as="geometry">
            <mxPoint x="400" y="110" as="sourcePoint" />
            <mxPoint x="450" y="60" as="targetPoint" />
          </mxGeometry>
        </mxCell>
        <mxCell id="O9P87CqrhAHiz72OC8NO-21" value="" style="endArrow=classic;html=1;exitX=0.5;exitY=1;exitDx=0;exitDy=0;entryX=0.5;entryY=0;entryDx=0;entryDy=0;" edge="1" parent="1" source="O9P87CqrhAHiz72OC8NO-2" target="O9P87CqrhAHiz72OC8NO-3">
          <mxGeometry width="50" height="50" relative="1" as="geometry">
            <mxPoint x="400" y="210" as="sourcePoint" />
            <mxPoint x="450" y="160" as="targetPoint" />
          </mxGeometry>
        </mxCell>
        <mxCell id="O9P87CqrhAHiz72OC8NO-22" value="" style="endArrow=classic;html=1;exitX=0.5;exitY=1;exitDx=0;exitDy=0;entryX=0.5;entryY=0;entryDx=0;entryDy=0;" edge="1" parent="1" source="O9P87CqrhAHiz72OC8NO-3" target="O9P87CqrhAHiz72OC8NO-4">
          <mxGeometry width="50" height="50" relative="1" as="geometry">
            <mxPoint x="400" y="310" as="sourcePoint" />
            <mxPoint x="450" y="260" as="targetPoint" />
          </mxGeometry>
        </mxCell>
        <mxCell id="O9P87CqrhAHiz72OC8NO-23" value="No" style="endArrow=classic;html=1;exitX=1;exitY=0.5;exitDx=0;exitDy=0;entryX=0;entryY=0.5;entryDx=0;entryDy=0;" edge="1" parent="1" source="O9P87CqrhAHiz72OC8NO-4" target="O9P87CqrhAHiz72OC8NO-5">
          <mxGeometry width="50" height="50" relative="1" as="geometry">
            <mxPoint x="470" y="380" as="sourcePoint" />
            <mxPoint x="520" y="330" as="targetPoint" />
          </mxGeometry>
        </mxCell>
        <mxCell id="O9P87CqrhAHiz72OC8NO-24" value="Yes" style="endArrow=classic;html=1;exitX=0.5;exitY=1;exitDx=0;exitDy=0;entryX=0.5;entryY=0;entryDx=0;entryDy=0;" edge="1" parent="1" source="O9P87CqrhAHiz72OC8NO-4" target="O9P87CqrhAHiz72OC8NO-6">
          <mxGeometry width="50" height="50" relative="1" as="geometry">
            <mxPoint x="400" y="430" as="sourcePoint" />
            <mxPoint x="450" y="380" as="targetPoint" />
          </mxGeometry>
        </mxCell>
        <mxCell id="O9P87CqrhAHiz72OC8NO-25" value="No" style="endArrow=classic;html=1;exitX=1;exitY=0.5;exitDx=0;exitDy=0;entryX=0;entryY=0.5;entryDx=0;entryDy=0;" edge="1" parent="1" source="O9P87CqrhAHiz72OC8NO-6" target="O9P87CqrhAHiz72OC8NO-7">
          <mxGeometry width="50" height="50" relative="1" as="geometry">
            <mxPoint x="470" y="500" as="sourcePoint" />
            <mxPoint x="520" y="450" as="targetPoint" />
          </mxGeometry>
        </mxCell>
        <mxCell id="O9P87CqrhAHiz72OC8NO-26" value="Yes" style="endArrow=classic;html=1;exitX=0.5;exitY=1;exitDx=0;exitDy=0;entryX=0.5;entryY=0;entryDx=0;entryDy=0;" edge="1" parent="1" source="O9P87CqrhAHiz72OC8NO-6" target="O9P87CqrhAHiz72OC8NO-8">
          <mxGeometry width="50" height="50" relative="1" as="geometry">
            <mxPoint x="400" y="550" as="sourcePoint" />
            <mxPoint x="450" y="500" as="targetPoint" />
          </mxGeometry>
        </mxCell>
        <mxCell id="O9P87CqrhAHiz72OC8NO-27" value="No" style="endArrow=classic;html=1;exitX=1;exitY=0.5;exitDx=0;exitDy=0;entryX=0;entryY=0.5;entryDx=0;entryDy=0;" edge="1" parent="1" source="O9P87CqrhAHiz72OC8NO-8" target="O9P87CqrhAHiz72OC8NO-9">
          <mxGeometry width="50" height="50" relative="1" as="geometry">
            <mxPoint x="470" y="620" as="sourcePoint" />
            <mxPoint x="520" y="570" as="targetPoint" />
          </mxGeometry>
        </mxCell>
        <mxCell id="O9P87CqrhAHiz72OC8NO-28" value="Yes" style="endArrow=classic;html=1;exitX=0.5;exitY=1;exitDx=0;exitDy=0;entryX=0.5;entryY=0;entryDx=0;entryDy=0;" edge="1" parent="1" source="O9P87CqrhAHiz72OC8NO-8" target="O9P87CqrhAHiz72OC8NO-10">
          <mxGeometry width="50" height="50" relative="1" as="geometry">
            <mxPoint x="400" y="670" as="sourcePoint" />
            <mxPoint x="450" y="620" as="targetPoint" />
          </mxGeometry>
        </mxCell>
        <mxCell id="O9P87CqrhAHiz72OC8NO-29" value="No" style="endArrow=classic;html=1;exitX=1;exitY=0.5;exitDx=0;exitDy=0;entryX=0;entryY=0.5;entryDx=0;entryDy=0;" edge="1" parent="1" source="O9P87CqrhAHiz72OC8NO-10" target="O9P87CqrhAHiz72OC8NO-11">
          <mxGeometry width="50" height="50" relative="1" as="geometry">
            <mxPoint x="470" y="740" as="sourcePoint" />
            <mxPoint x="520" y="690" as="targetPoint" />
          </mxGeometry>
        </mxCell>
        <mxCell id="O9P87CqrhAHiz72OC8NO-30" value="Yes" style="endArrow=classic;html=1;exitX=0.5;exitY=1;exitDx=0;exitDy=0;entryX=0.5;entryY=0;entryDx=0;entryDy=0;" edge="1" parent="1" source="O9P87CqrhAHiz72OC8NO-10" target="O9P87CqrhAHiz72OC8NO-12">
          <mxGeometry width="50" height="50" relative="1" as="geometry">
            <mxPoint x="400" y="790" as="sourcePoint" />
            <mxPoint x="450" y="740" as="targetPoint" />
          </mxGeometry>
        </mxCell>
        <mxCell id="O9P87CqrhAHiz72OC8NO-31" value="No" style="endArrow=classic;html=1;exitX=1;exitY=0.5;exitDx=0;exitDy=0;entryX=0;entryY=0.5;entryDx=0;entryDy=0;" edge="1" parent="1" source="O9P87CqrhAHiz72OC8NO-12" target="O9P87CqrhAHiz72OC8NO-13">
          <mxGeometry width="50" height="50" relative="1" as="geometry">
            <mxPoint x="470" y="860" as="sourcePoint" />
            <mxPoint x="520" y="810" as="targetPoint" />
          </mxGeometry>
        </mxCell>
        <mxCell id="O9P87CqrhAHiz72OC8NO-32" value="Yes" style="endArrow=classic;html=1;exitX=0.5;exitY=1;exitDx=0;exitDy=0;entryX=0.5;entryY=0;entryDx=0;entryDy=0;" edge="1" parent="1" source="O9P87CqrhAHiz72OC8NO-12" target="O9P87CqrhAHiz72OC8NO-14">
          <mxGeometry width="50" height="50" relative="1" as="geometry">
            <mxPoint x="400" y="910" as="sourcePoint" />
            <mxPoint x="450" y="860" as="targetPoint" />
          </mxGeometry>
        </mxCell>
        <mxCell id="O9P87CqrhAHiz72OC8NO-33" value="" style="endArrow=classic;html=1;exitX=0.5;exitY=1;exitDx=0;exitDy=0;entryX=0.5;entryY=0;entryDx=0;entryDy=0;" edge="1" parent="1" source="O9P87CqrhAHiz72OC8NO-14" target="O9P87CqrhAHiz72OC8NO-15">
          <mxGeometry width="50" height="50" relative="1" as="geometry">
            <mxPoint x="400" y="1010" as="sourcePoint" />
            <mxPoint x="450" y="960" as="targetPoint" />
          </mxGeometry>
        </mxCell>
        <mxCell id="O9P87CqrhAHiz72OC8NO-34" value="" style="endArrow=classic;html=1;exitX=0.5;exitY=1;exitDx=0;exitDy=0;entryX=0.5;entryY=0;entryDx=0;entryDy=0;" edge="1" parent="1" source="O9P87CqrhAHiz72OC8NO-15" target="O9P87CqrhAHiz72OC8NO-16">
          <mxGeometry width="50" height="50" relative="1" as="geometry">
            <mxPoint x="400" y="1110" as="sourcePoint" />
            <mxPoint x="450" y="1060" as="targetPoint" />
          </mxGeometry>
        </mxCell>
        <mxCell id="O9P87CqrhAHiz72OC8NO-35" value="Yes" style="endArrow=classic;html=1;exitX=0;exitY=0.5;exitDx=0;exitDy=0;entryX=0.5;entryY=0;entryDx=0;entryDy=0;" edge="1" parent="1" source="O9P87CqrhAHiz72OC8NO-16" target="O9P87CqrhAHiz72OC8NO-17">
          <mxGeometry width="50" height="50" relative="1" as="geometry">
            <mxPoint x="330" y="1180" as="sourcePoint" />
            <mxPoint x="280" y="1230" as="targetPoint" />
            <Array as="points">
              <mxPoint x="320" y="1180" />
            </Array>
          </mxGeometry>
        </mxCell>
        <mxCell id="O9P87CqrhAHiz72OC8NO-36" value="No" style="endArrow=classic;html=1;exitX=1;exitY=0.5;exitDx=0;exitDy=0;entryX=0.5;entryY=0;entryDx=0;entryDy=0;" edge="1" parent="1" source="O9P87CqrhAHiz72OC8NO-16" target="O9P87CqrhAHiz72OC8NO-18">
          <mxGeometry width="50" height="50" relative="1" as="geometry">
            <mxPoint x="470" y="1180" as="sourcePoint" />
            <mxPoint x="520" y="1130" as="targetPoint" />
            <Array as="points">
              <mxPoint x="640" y="1180" />
            </Array>
          </mxGeometry>
        </mxCell>
        <mxCell id="O9P87CqrhAHiz72OC8NO-37" value="" style="endArrow=classic;html=1;exitX=0.5;exitY=1;exitDx=0;exitDy=0;entryX=0;entryY=0.5;entryDx=0;entryDy=0;" edge="1" parent="1" source="O9P87CqrhAHiz72OC8NO-17" target="O9P87CqrhAHiz72OC8NO-19">
          <mxGeometry width="50" height="50" relative="1" as="geometry">
            <mxPoint x="320" y="1380" as="sourcePoint" />
            <mxPoint x="370" y="1330" as="targetPoint" />
            <Array as="points">
              <mxPoint x="320" y="1390" />
            </Array>
          </mxGeometry>
        </mxCell>
        <mxCell id="O9P87CqrhAHiz72OC8NO-38" value="" style="endArrow=classic;html=1;exitX=0.5;exitY=1;exitDx=0;exitDy=0;entryX=1;entryY=0.5;entryDx=0;entryDy=0;" edge="1" parent="1" source="O9P87CqrhAHiz72OC8NO-18" target="O9P87CqrhAHiz72OC8NO-19">
          <mxGeometry width="50" height="50" relative="1" as="geometry">
            <mxPoint x="640" y="1380" as="sourcePoint" />
            <mxPoint x="580" y="1330" as="targetPoint" />
            <Array as="points">
              <mxPoint x="640" y="1390" />
            </Array>
          </mxGeometry>
        </mxCell>
        <mxCell id="O9P87CqrhAHiz72OC8NO-40" value="" style="endArrow=classic;html=1;exitX=0.5;exitY=1;exitDx=0;exitDy=0;entryX=1;entryY=0;entryDx=0;entryDy=0;" edge="1" parent="1" target="O9P87CqrhAHiz72OC8NO-3">
          <mxGeometry width="50" height="50" relative="1" as="geometry">
            <mxPoint x="780" y="410" as="sourcePoint" />
            <mxPoint x="541.1764705882354" y="176.47058823529414" as="targetPoint" />
            <Array as="points">
              <mxPoint x="780" y="420" />
              <mxPoint x="800" y="420" />
              <mxPoint x="780" y="250" />
            </Array>
          </mxGeometry>
        </mxCell>
        <mxCell id="O9P87CqrhAHiz72OC8NO-41" value="" style="endArrow=classic;html=1;exitX=0.5;exitY=1;exitDx=0;exitDy=0;entryX=1;entryY=0.25;entryDx=0;entryDy=0;" edge="1" parent="1" target="O9P87CqrhAHiz72OC8NO-3">
          <mxGeometry width="50" height="50" relative="1" as="geometry">
            <mxPoint x="780" y="650" as="sourcePoint" />
            <mxPoint x="650" y="270" as="targetPoint" />
            <Array as="points">
              <mxPoint x="780" y="660" />
              <mxPoint x="820" y="660" />
              <mxPoint x="820" y="270" />
            </Array>
          </mxGeometry>
        </mxCell>
        <mxCell id="O9P87CqrhAHiz72OC8NO-42" value="" style="endArrow=classic;html=1;exitX=0.5;exitY=1;exitDx=0;exitDy=0;entryX=1;entryY=0.75;entryDx=0;entryDy=0;" edge="1" parent="1" target="O9P87CqrhAHiz72OC8NO-3">
          <mxGeometry width="50" height="50" relative="1" as="geometry">
            <mxPoint x="750" y="770" as="sourcePoint" />
            <mxPoint x="620" y="270" as="targetPoint" />
            <Array as="points">
              <mxPoint x="750" y="780" />
              <mxPoint x="810" y="780" />
              <mxPoint x="810" y="270" />
            </Array>
          </mxGeometry>
        </mxCell>
        <mxCell id="O9P87CqrhAHiz72OC8NO-43" value="" style="endArrow=classic;html=1;exitX=0.5;exitY=1;exitDx=0;exitDy=0;entryX=1;entryY=0.5;entryDx=0;entryDy=0;" edge="1" parent="1" target="O9P87CqrhAHiz72OC8NO-3">
          <mxGeometry width="50" height="50" relative="1" as="geometry">
            <mxPoint x="760" y="890" as="sourcePoint" />
            <mxPoint x="630" y="270" as="targetPoint" />
            <Array as="points">
              <mxPoint x="760" y="900" />
              <mxPoint x="840" y="900" />
              <mxPoint x="840" y="270" />
            </Array>
          </mxGeometry>
        </mxCell>
        <mxCell id="O9P87CqrhAHiz72OC8NO-55" value="" style="endArrow=classic;html=1;exitX=0.955;exitY=1.003;exitDx=0;exitDy=0;entryX=1;entryY=1;entryDx=0;entryDy=0;exitPerimeter=0;" edge="1" parent="1" source="O9P87CqrhAHiz72OC8NO-7" target="O9P87CqrhAHiz72OC8NO-3">
          <mxGeometry width="50" height="50" relative="1" as="geometry">
            <mxPoint x="790" y="540" as="sourcePoint" />
            <mxPoint x="551" y="306" as="targetPoint" />
            <Array as="points">
              <mxPoint x="790" y="550" />
              <mxPoint x="810" y="550" />
              <mxPoint x="810" y="280" />
            </Array>
          </mxGeometry>
        </mxCell>
      </root>
    </mxGraphModel>
  </diagram>
</mxfile>
